<?xml version="1.0" encoding="utf-8" ?>
<svg xmlns="http://www.w3.org/2000/svg" xmlns:xlink="http://www.w3.org/1999/xlink" width="1024" height="1024">
	<path fill="#F8F8F6" d="M0 0L1024 0L1024 1024L0 1024L0 0Z"/>
	<path fill="#594763" d="M512.625 179.864C510.635 172.543 502.318 144.694 505.715 139.373C505.804 139.233 505.933 139.12 506.04 138.992C509.519 134.827 504.889 127.091 512.732 126.438C514.996 126.249 517.22 126.384 519.474 126.058C521.425 125.776 522.775 126.212 524.331 127.385C531.281 132.623 538.509 146.251 542.445 154.15C543.402 151.47 544.59 147.128 547.209 145.645C548.379 144.982 548.967 145.215 550.168 145.513C551.666 146.916 552.25 148.283 552.758 150.267C554.177 155.811 553.544 161.642 554.64 167.199C556.292 175.566 559.354 183.141 560.364 191.763C592.935 197.83 623.692 207.091 654.144 220.09C663.564 224.111 674.001 228.577 682.499 234.318L683.952 232.872C683.475 229.57 676.717 228.409 680.177 223.783C680.775 222.984 681.651 222.258 682.382 221.574C681.973 214.81 676.004 214.855 683.109 207.075C689.091 200.524 699.095 198.667 707.581 198.441Q709.555 198.407 711.527 198.469Q713.5 198.532 715.468 198.691Q717.435 198.85 719.393 199.104Q721.35 199.359 723.292 199.709Q725.235 200.059 727.158 200.504Q729.081 200.949 730.98 201.487Q732.879 202.025 734.75 202.655Q736.62 203.285 738.458 204.006Q740.295 204.727 742.095 205.537Q743.896 206.347 745.654 207.243Q747.412 208.14 749.125 209.122Q750.837 210.103 752.5 211.168Q754.162 212.232 755.77 213.376Q757.379 214.52 758.929 215.741Q760.48 216.963 761.969 218.258Q763.458 219.554 764.882 220.921C771.741 227.543 793.033 252.755 795.027 261.848L794.71 263.119C793.287 263.613 792.142 263.351 790.803 262.656C788.779 261.606 786.864 260.161 784.991 258.859C787.839 269.983 789.608 281.096 783.384 291.536C777.362 301.636 767.65 308.96 757.448 314.451C770.911 326.666 789.228 356.787 797.619 373.148C787.968 375.679 778.416 377.811 768.453 378.748C773.879 386.601 778.171 394.89 782.546 403.352C785.424 409.947 788.883 417.007 790.751 423.953Q798.593 445.098 804.818 466.774Q811.042 488.451 815.614 510.535C817.524 519.432 819.932 528.831 820.156 537.954C820.444 549.712 819.122 561.903 817.415 573.523C817.085 575.77 814.824 586.888 815.444 587.93C815.68 588.327 816.767 588.836 817.163 589.013C817.352 589.097 817.545 589.171 817.735 589.251C821.674 590.299 825.619 591.954 829.445 593.374C831.972 594.313 836.349 595.635 837.506 598.162L836.541 599.342C834.943 599.853 834.221 599.594 832.604 599.078C824.111 596.372 815.823 592.917 807.327 590.158C794.747 586.073 781.923 582.783 769.122 579.475C721.113 567.069 671.527 560.337 622.202 555.9C609.066 554.718 595.842 554.094 582.671 553.407C577.162 553.12 571.402 553.299 565.942 552.632C563.88 552.379 562.126 551.928 560.277 550.992L560.325 549.058C568.926 546.782 592.778 549.809 603.105 550.004C604.527 540.705 605.417 531.322 606.862 522.018Q612.127 486.637 620.746 451.92Q602.857 459.006 585.328 466.94Q567.799 474.874 550.67 483.638Q533.541 492.402 516.85 501.975Q500.16 511.549 483.947 521.91C475.801 527.074 466.734 531.703 459.514 538.138C460.668 542.129 463.054 547.646 461.985 551.726C460.811 552.603 459.657 552.534 458.207 552.641C450.737 553.192 443.165 553.148 435.675 553.492Q416.079 554.44 396.54 556.212Q362.992 559.08 329.726 564.278Q296.459 569.477 263.636 576.98C250.091 580.214 236.446 583.705 223.104 587.695C215.255 590.041 207.506 592.97 199.615 595.122C198.268 595.489 196.833 595.848 195.43 595.712C195.243 595.694 195.062 595.641 194.878 595.606L194.66 594.822C196.373 592.05 197.669 591.361 200.726 590.264L201.485 589.985L201.943 589.825C199.18 583.782 197.37 577.636 195.621 571.249C234.791 548.736 273.722 525.88 314.272 505.864C314.405 505.662 314.545 505.465 314.671 505.258C316.33 502.54 315.472 500.239 314.654 497.426C307.157 500.295 300.045 505.131 292.868 508.771Q242.437 534.963 194.201 565.007C181.174 508.821 191.708 448.818 212.265 395.817C217.002 383.605 223.469 372.256 228.426 360.188C227.668 358.954 226.877 357.776 226.972 356.254C227.062 354.806 228.415 353.727 229.381 352.774C234.194 349.042 247.729 327.63 253.036 320.83C260.695 311.015 269 302.189 277.783 293.386C282.56 273.498 288.14 256.148 304.25 242.264C319.341 229.259 340.952 221.887 360.857 223.392C366.967 217.49 371.334 213.733 379.894 211.921C385.539 207.784 393.535 205.852 400.105 203.691C436.653 191.671 470.733 187.208 509.032 186.427C510.224 184.239 511.381 182.022 512.625 179.864Z"/>
	<path fill="#D0FEB7" d="M507.957 274.954Q513.174 263.911 518.183 252.772C520.094 248.467 521.646 243.892 523.918 239.767C525.461 246.107 532.312 263.067 535.783 268.52C537.163 270.69 539.706 270.154 540.828 272.833C547.687 289.222 553.832 305.894 560.869 322.237C565.271 332.459 569.622 343.021 576.223 352.056C589.503 370.235 608.429 384.937 624.994 400.019C627.97 402.701 631.047 405.322 633.915 408.116Q631.052 416.258 628.41 424.474C625.818 433.567 622.83 442.707 620.746 451.92Q602.857 459.006 585.328 466.94Q567.799 474.874 550.67 483.638Q533.541 492.402 516.85 501.975Q500.16 511.549 483.947 521.91C475.801 527.074 466.734 531.703 459.514 538.138C457.156 529.84 455.882 521.294 453.815 512.923C452.625 506.662 447.523 489.75 447.616 484.94C447.64 483.736 448.018 482.999 448.526 481.935C451.903 473.861 455.334 465.822 456.909 457.16C460.576 436.998 449.552 419.515 438.483 403.646C446.906 390.198 456.173 377.25 464.824 363.939C471.705 353.352 478.077 342.373 484.556 331.534C487.043 327.374 495.045 311.279 498.5 309.517C504.102 306.658 511.623 290.429 514.119 284.47C512.489 281.116 510.088 278.008 507.957 274.954Z"/>
	<path fill="#F8F8F6" d="M624.994 400.019C627.97 402.701 631.047 405.322 633.915 408.116Q631.052 416.258 628.41 424.474C625.818 433.567 622.83 442.707 620.746 451.92Q602.857 459.006 585.328 466.94Q567.799 474.874 550.67 483.638Q533.541 492.402 516.85 501.975Q500.16 511.549 483.947 521.91C475.801 527.074 466.734 531.703 459.514 538.138C457.156 529.84 455.882 521.294 453.815 512.923C452.625 506.662 447.523 489.75 447.616 484.94C447.64 483.736 448.018 482.999 448.526 481.935Q481.303 463.568 515.109 447.173Q548.915 430.777 583.632 416.409C597.026 410.812 610.987 403.833 624.994 400.019Z"/>
	<path fill="#D0FEB7" d="M453.815 512.923C463.335 507.827 472.397 501.796 481.724 496.342Q505.283 482.542 529.639 470.203Q559.55 455.114 590.199 441.585C602.937 435.9 615.855 430.554 628.41 424.474C625.818 433.567 622.83 442.707 620.746 451.92Q602.857 459.006 585.328 466.94Q567.799 474.874 550.67 483.638Q533.541 492.402 516.85 501.975Q500.16 511.549 483.947 521.91C475.801 527.074 466.734 531.703 459.514 538.138C457.156 529.84 455.882 521.294 453.815 512.923Z"/>
	<path fill="#D0FEB7" d="M228.426 360.188C233.554 366.279 238.899 371.2 247.281 371.952C249.454 372.147 251.661 372.147 253.842 372.171L253.469 372.823C251.237 376.68 247.708 381.029 243.248 382.25C238.221 383.627 232.817 378.678 228.805 381.113C228.191 383.039 228.718 384.241 229.645 385.993C234.671 395.481 242.99 400.403 253.014 403.353C256.806 404.469 261.25 404.958 264.889 406.274L264.681 407.691L265.042 408.124C263.961 409.111 263.738 409.268 263.335 410.656C263.907 412.653 265.755 413.601 267.467 414.558C277.786 420.321 291.875 423.416 303.434 420.02C305.412 419.439 307.292 418.534 309.068 417.496C308.173 446.722 309.137 468.452 314.654 497.426C307.157 500.295 300.045 505.131 292.868 508.771Q242.437 534.963 194.201 565.007C181.174 508.821 191.708 448.818 212.265 395.817C217.002 383.605 223.469 372.256 228.426 360.188Z"/>
	<path fill="#D0FEB7" d="M560.364 191.763C592.935 197.83 623.692 207.091 654.144 220.09C663.564 224.111 674.001 228.577 682.499 234.318C673.795 242.232 674.577 255.165 668.181 263.157C664.405 267.875 657.199 271.091 656.59 277.722C656.157 282.446 658.31 287.099 659.061 291.702C660.483 300.405 659.21 312.604 665.306 319.727C670.732 326.068 680.73 325.873 688.399 326.415C688.615 329.908 688.55 333.384 688.495 336.882C679.917 337.161 673.289 338.596 665.721 342.723C652.399 337.047 620.855 319.457 611.627 309.615C606.795 304.463 587.508 258.51 584.441 250.395C581.701 243.144 575.78 217.683 570.034 214.306C567.162 212.618 564.108 213.959 561.2 214.822C560.111 212.811 559.426 210.687 558.68 208.534C559.647 202.665 560.577 197.769 560.364 191.763Z"/>
	<path fill="#D0FEB7" d="M379.894 211.921C385.539 207.784 393.535 205.852 400.105 203.691C436.653 191.671 470.733 187.208 509.032 186.427C506.338 193.859 505.933 201.397 503.814 208.875C500.786 219.558 487.731 245.819 480.943 254.631C479.708 254.836 478.902 254.492 477.738 254.118C473.712 255.753 459.5 273.858 457.444 278.498C456.912 279.699 457.315 280.989 456.83 282.219C455.843 284.72 452.3 288.19 450.545 290.344C440.158 303.094 428.977 317.311 415.39 326.795C415.746 319.544 420.362 285.231 417.24 281.269C415.944 279.626 412.215 279.662 410.286 279.457C404.222 263.021 402.991 255.359 391.699 240.876C393.445 233.669 395.398 224.313 391.078 217.602C389.23 214.731 386.35 212.917 383.015 212.319C381.984 212.134 380.936 212.027 379.894 211.921Z"/>
	<path fill="#D0FEB7" d="M195.621 571.249C234.791 548.736 273.722 525.88 314.272 505.864C310.393 518.229 307.442 530.867 304.344 543.442C297.822 544.888 249.601 571.851 244.462 577.201C230.239 581.351 215.994 585.058 201.943 589.825C199.18 583.782 197.37 577.636 195.621 571.249Z"/>
	<path fill="#D0FEB7" d="M744.117 318.808C749.184 318.2 752.896 316.743 757.448 314.451C770.911 326.666 789.228 356.787 797.619 373.148C787.968 375.679 778.416 377.811 768.453 378.748L756.673 363.799L757.173 363.522L758 363.051C760.291 361.76 762.016 360.599 763.952 358.815Q763.496 355.962 762.964 353.122C761.631 346.176 758.579 337.848 752.345 333.862C749.005 331.726 747.05 331.811 743.274 332.611C743.741 327.999 744.017 323.443 744.117 318.808Z"/>
	<path fill="#D0FEB7" d="M229.381 352.774C234.194 349.042 247.729 327.63 253.036 320.83C260.695 311.015 269 302.189 277.783 293.386C273.826 312.595 267.462 338.742 250.158 350.221C245.446 353.347 238.925 355.651 233.241 354.479C231.858 354.194 230.536 353.582 229.381 352.774Z"/>
	<path fill="#F8F8F6" d="M244.462 577.201C249.601 571.851 297.822 544.888 304.344 543.442C302.766 550.433 300.647 557.769 300.362 564.953Q272.198 570.099 244.462 577.201Z"/>
	<path fill="#C6BAC6" d="M264.889 406.274C268.997 406.697 273.181 406.976 277.26 407.608C274.549 408.458 271.84 409.365 269.106 410.137L265.042 408.124L264.681 407.691L264.889 406.274Z"/>
	<path fill="#C6BAC6" d="M752.136 366.353C752.219 366.357 752.302 366.351 752.383 366.363C754.885 366.726 762.114 377.217 763.912 379.631C786.313 409.706 801.471 467.752 809.788 503.988C812.131 514.194 815.256 525.236 815.864 535.716C816.844 552.57 813.479 570.351 811.042 586.977C804.266 585.26 797.629 582.712 790.904 580.752Q774.328 576.076 757.561 572.143C759.644 561.814 759.558 551.067 761.09 540.649Q767.455 538.884 773.956 537.713C778.223 536.954 784.638 537.18 788.387 535.325C789.4 534.823 789.398 534.593 789.706 533.582C789.207 532.781 789.121 532.429 788.263 531.947C784.59 529.887 765.59 534.747 761.143 536.149C766.031 532.349 771.253 528.823 776.857 526.167C779.688 524.827 785.942 522.906 787.911 520.69C788.403 520.137 788.23 519.535 788.244 518.841C787.767 518.324 787.583 517.842 786.829 517.789C780.745 517.367 764.48 528.526 759.562 532.393C757.007 522.62 753.053 513.016 749.693 503.487C742.567 483.274 735.176 463.042 728.909 442.55C727.168 435.991 726.015 428.924 723.93 422.518C723.356 420.755 722.87 419.599 721.178 418.757L720.187 419.224C715.391 429.424 752.311 517.416 755.676 537.593C757.48 548.402 754.911 560.527 753.576 571.341Q728.309 565.71 702.789 561.365C691.259 559.458 679.653 558.07 668.107 556.271C664.258 494.125 656.792 431.953 681.606 372.729C686.702 381.694 688.528 392.374 693.493 401.308C694.241 402.653 694.955 403.758 696.449 404.215C703.08 400.812 709.288 395.282 715.385 390.906C727.366 382.306 739.406 373.822 752.136 366.353Z"/>
	<path fill="#F8F8F6" d="M334.296 380.876C335.065 380.953 335.716 381.119 336.437 381.405C340.73 383.11 344.802 386.049 348.487 388.787C363.782 400.151 364.877 408.466 371.666 424.865C372.518 426.923 372.939 427.664 375.008 428.51C375.522 428.429 376.076 428.481 376.551 428.267C378.394 427.434 385.738 416.351 388.663 413.8C388.819 413.664 388.978 413.532 389.136 413.397C395.762 414.531 400.41 416.98 405.06 421.828C409.846 426.818 414.409 432.522 417.606 438.68C428.227 459.142 430.977 489.689 430.447 512.617C430.163 524.909 428.776 537.153 428.535 549.442C414.79 549.761 400.464 551.483 386.81 553.1C384.326 542.508 381.251 532.026 379.053 521.375Q377.554 514.038 376.453 506.631Q375.353 499.223 374.653 491.767Q373.953 484.311 373.657 476.829Q373.36 469.346 373.468 461.858C373.521 455.925 375.806 436.459 373.061 432.891L372.32 433.048C368.201 440.517 369.363 470.599 369.552 479.708C370.885 497.893 372.988 515.408 377.482 533.107C365.706 528.667 355.806 526.331 343.585 530.828C340.163 532.087 335.346 533.982 333.733 537.422C333.923 538.608 333.666 538.565 334.705 539.328C338.85 538.76 343.241 535.649 347.132 534.033C356.82 530.011 369.913 534.342 378.931 538.165L380.454 544.708L379.729 544.437C373 541.94 364.939 541.046 358.289 544.313C356.87 545.01 355.672 545.739 355.126 547.285L355.616 547.992C358.592 549.24 361.345 547.556 364.217 546.802C368.482 545.681 376.19 546.97 379.923 549.268C381.317 550.126 381.84 551.01 382.163 552.628C380.828 553.826 340.501 558.078 334.927 558.704C321.26 518.391 306.538 448.621 314.803 406.849C316.975 395.873 325.255 386.969 334.296 380.876Z"/>
	<path fill="#594763" d="M416.807 486.317C417.035 486.343 417.267 486.341 417.49 486.396C418.484 486.639 419.212 487.011 419.801 487.842L419.611 488.897C418.403 490.602 416.899 491.867 415.131 492.982C405.541 499.023 394.073 498.925 383.348 496.575L381.837 495.8C381.136 494.838 380.935 494.356 380.845 493.167L381.77 492.423C384.392 491.929 387.557 493.207 390.223 493.559C400.795 494.956 408.34 492.808 416.807 486.317Z"/>
	<path fill="#594763" d="M331.912 403.981C334.379 403.887 336.597 404.115 338.942 404.943C347.069 407.813 355.914 416.172 359.382 423.955C360.203 425.798 360.159 426.606 359.47 428.487C355.148 427.118 349.925 416.141 345.188 412.799C341.831 410.431 334.379 409.209 332.052 406.144C331.571 405.512 331.855 404.724 331.912 403.981Z"/>
	<path fill="#594763" d="M390.63 423.804C396.305 424.939 405.41 429.046 408.846 433.853C409.004 435.532 408.526 435.771 407.583 437.116C403.183 435.918 399.991 430.984 395.213 429.57C393.233 428.984 391.581 428.571 389.963 427.239C389.433 425.824 390.064 425.167 390.63 423.804Z"/>
	<path fill="#857288" d="M366.168 223.864C369.379 219.727 373.354 216.154 378.813 215.575C381.462 215.294 384.109 215.936 386.112 217.751C388.836 220.22 389.805 224.126 389.908 227.672C389.986 230.388 389.703 235.382 388.269 237.722L387.684 237.819C387.458 237.602 387.229 237.39 387.008 237.17C384.129 234.306 382.696 229.953 378.717 228.225C377.927 229.964 380.181 235.953 380.752 238.013C376.813 250.278 368.906 265.662 359.331 274.297C359.458 270.303 360.221 265.215 358.255 261.626L357.345 260.992L356.419 261.277C355.262 263.666 355.381 266.838 355.159 269.467C354.946 272.006 354.881 274.881 353.99 277.29C351.706 283.47 342.949 289.866 337.986 293.85L331.492 292.867C333.366 288.265 337.582 280.542 336.182 275.555L334.701 275.668C332.044 278.765 329.995 287.269 327.69 291.649C326.239 294.406 323.278 295.839 322.021 298.734C320.759 301.64 320.229 304.553 320.415 307.722C320.756 313.522 323.679 319.036 328.138 322.733C333.17 326.906 338.972 327.889 345.294 327.221C345.454 327.204 345.613 327.18 345.772 327.16C348.367 337.966 351.219 349.449 351.648 360.587C345.769 360.299 341.786 361.546 337.307 365.648C335.044 367.721 333.027 369.958 331.544 372.665L331.43 377.845C318.759 387.531 311.961 395.151 309.752 411.241C303.573 416.431 296.702 417.606 288.881 416.972C283.037 416.499 277.823 414.797 272.45 412.535C281.775 411.062 301.414 404.473 307.105 396.761C307.916 395.662 308.01 395.023 307.935 393.695L307.211 392.867C303.363 393.732 299.81 397.865 296.031 399.549C292.189 401.26 288.279 402.747 284.092 403.325C272.526 404.921 253.632 401.279 243.596 394.999C240.425 393.014 236.324 389.643 234.9 386.115C235.953 386.024 235.399 385.921 236.312 386.448C242.027 389.742 257.817 390.995 264.158 388.843C265.387 388.426 266.531 387.782 267.122 386.567C267.473 385.844 267.415 385.313 267.317 384.553C263.593 383.202 253.182 388.306 244.033 384.768C249.942 381.815 255.928 378.017 258.253 371.406C258.688 370.168 258.554 369.649 258.095 368.453C253.681 365.372 245.874 371.307 236.388 363.368C234.972 362.183 233.545 360.966 233.144 359.091L233.585 358.522C234.621 358.497 235.533 358.479 236.566 358.587C239.37 358.64 242.044 358.336 244.734 357.516C274.09 348.568 277.571 306.724 284.788 282.068Q286.083 277.62 287.837 273.332Q289.59 269.043 291.782 264.962C301.262 247.326 315.934 235.577 335.117 229.874C342.993 224.878 354.544 227.211 363.258 226.134C364.959 225.924 365.26 225.149 366.168 223.864Z"/>
	<path fill="#F8F8F6" d="M335.117 229.874C334.987 230.006 334.868 230.148 334.729 230.269C332.145 232.513 327.748 233.972 324.725 235.839Q322.803 237.018 320.953 238.308Q319.103 239.597 317.331 240.992Q315.559 242.388 313.872 243.884Q312.185 245.38 310.588 246.972Q308.991 248.565 307.49 250.247Q305.988 251.93 304.588 253.698Q303.187 255.465 301.892 257.311Q300.597 259.157 299.412 261.076Q295.833 266.769 293.026 272.879Q290.219 278.989 288.232 285.413C280.115 310.92 277.674 343.79 250.245 356.814C247.387 358.171 241.504 360.714 238.425 359.98C237.63 359.791 237.502 359.678 236.848 359.332L236.566 358.587C239.37 358.64 242.044 358.336 244.734 357.516C274.09 348.568 277.571 306.724 284.788 282.068Q286.083 277.62 287.837 273.332Q289.59 269.043 291.782 264.962C301.262 247.326 315.934 235.577 335.117 229.874Z"/>
	<path fill="#F8F8F6" d="M366.168 223.864C369.379 219.727 373.354 216.154 378.813 215.575C381.462 215.294 384.109 215.936 386.112 217.751C388.836 220.22 389.805 224.126 389.908 227.672C389.986 230.388 389.703 235.382 388.269 237.722L387.684 237.819C388.093 234.269 387.771 229.838 387.08 226.315C386.631 224.026 385.804 221.542 383.708 220.247C377.384 216.337 371.467 222.729 366.702 223.796C366.527 223.835 366.346 223.841 366.168 223.864Z"/>
	<path fill="#F8F8F6" d="M686.983 234.764C693.006 237.24 697.57 238.74 704.175 238.092C708.851 250.135 712.497 261.124 712.199 274.187C712.134 277.077 711.643 281.748 712.885 284.437C713.632 286.054 714.602 287.125 716.304 287.7C720.184 287.375 723.453 281.287 726.407 278.857C728.927 276.785 732.27 275.076 735.627 275.597C738.472 276.039 741.088 277.803 742.671 280.187C744.972 283.651 745.344 288.514 744.367 292.48C743.332 296.681 740.743 300.574 736.979 302.792C727.266 308.515 726.243 300.528 720.615 299.635C719.826 299.51 720.025 299.57 719.418 300.116C719.292 301.391 719.734 302.499 720.399 303.574C723.758 309.005 727.031 307.843 731.688 309.888C733.021 310.474 733.216 313.596 733.913 314.992C734.959 317.085 737.441 318.095 739.478 318.89C739.675 326.224 738.603 332.788 738.108 340C725.148 346.76 711.503 352.674 698.266 358.894C691.933 361.869 684.441 364.56 678.942 368.936C674.251 380.619 669.965 392.304 666.997 404.559C655.659 451.368 658.901 508.04 664.21 555.737C652.126 554.599 640.05 553.159 627.974 551.912L628.865 542.119L629.372 536.788Q630.893 520.044 633.309 503.405Q635.724 486.766 639.027 470.28Q642.329 453.794 646.509 437.509Q650.689 421.223 655.735 405.185C660.472 389.996 665.916 372.663 674.821 359.349C677.962 354.653 681.749 351.258 686.093 347.691C685.692 350.18 684.755 353.416 686.266 355.63L687.036 355.769C693.169 351.234 692.765 329.141 695.611 326.186C698.375 323.317 704.063 322.162 707.397 319.694C708.234 319.074 708.194 319.164 708.664 318.134C705.145 316.845 694.222 320.326 690.114 320.984C683.792 321.997 676.206 322.464 670.817 318.362C665.456 314.282 665.031 307.797 664.371 301.647C668.788 303.982 673.134 305.122 678.111 303.916C682.865 302.763 688.028 299.093 690.375 294.743C691.039 293.513 691.081 292.864 690.764 291.537C685.726 290.547 673.417 289.639 668.557 290.641L668.29 291.228C672.503 294.46 680.974 293.989 683.138 296.287C683.082 296.423 683.044 296.567 682.969 296.694C681.926 298.465 678.627 299.634 676.785 300.211C672.116 301.676 668.03 300.054 663.982 297.832C663.376 292.274 660.772 282.911 660.874 278.402C660.995 273.06 667.563 270.619 670.677 266.913C678.406 257.716 676.548 245.071 686.983 234.764Z"/>
	<path fill="#594763" d="M688.578 246.582C693.66 246.776 698.093 247.845 702.044 251.262C703.371 252.41 704.73 254.137 704.626 255.997C704.514 258 703.288 259.074 701.78 260.162C697.157 255.007 693.235 255.169 687.781 251.936C686.557 251.21 686.369 250.758 686.079 249.405C686.704 247.867 687.264 247.488 688.578 246.582Z"/>
	<path fill="#594763" d="M683.277 259.69L684.618 260.723C685.845 263.925 685.525 267.494 684.477 270.703C683.712 273.044 682.946 274.062 680.738 275.185C680.397 274.817 680.257 274.688 679.948 274.237C678.471 272.08 678.459 269.222 678.953 266.729C679.564 263.643 680.631 261.409 683.277 259.69Z"/>
	<path fill="#594763" d="M730.947 283.974C732.137 283.983 733.44 283.968 734.513 284.57C735.871 285.334 736.633 286.953 736.893 288.435C737.215 290.271 736.689 292.235 735.58 293.724C734.533 295.129 733.53 295.32 731.863 295.499C731.875 293.146 732.766 290.974 733.49 288.759C732.33 288.927 731.108 289.163 729.938 289.199C728.64 289.238 728.085 288.954 727.114 288.144L727.185 287.049C728.26 285.624 729.437 284.9 730.947 283.974Z"/>
	<path fill="#594763" d="M695.617 265.243C696.02 265.435 696.25 265.524 696.63 265.81C697.705 266.616 698.278 267.67 698.479 268.982C698.904 271.745 697.531 274.196 695.866 276.264L694.734 275.945C693.729 275.075 693.284 274.271 693.148 272.947C692.858 270.139 693.983 267.448 695.617 265.243Z"/>
	<path fill="#C6BAC6" d="M578.547 248.565C580.244 249.674 600.46 298.132 603.181 304.164C598.194 303.594 590.529 301.74 585.811 302.831C584.386 303.161 583.502 303.59 582.778 304.859L583.209 306.027C590.813 308.443 599.311 307.327 607.334 309.972C599.509 312.077 589.144 315.401 584.668 322.853C583.85 324.216 583.341 325.238 583.716 326.773C587.216 327.159 594.476 319.512 598.393 317.522C602.071 315.653 605.963 314.741 610.014 314.118C625.05 326.662 644.868 338.038 662.742 345.946C657.055 352.608 652.829 359.326 648.994 367.199C643.771 379.055 639.75 391.236 635.247 403.364C627.052 397.254 618.035 387.952 610.291 380.887C598.552 370.176 586.014 358.917 577.036 345.693C571.48 337.511 567.818 327.805 563.979 318.731C556.885 301.96 550.503 284.805 543.041 268.213C551.979 257.817 565.875 252.643 578.547 248.565Z"/>
	<path fill="#F8F8F6" d="M460.401 284.736C470.867 286.876 485.908 301.133 492.47 309.328C482.459 326.795 472.369 344.378 461.422 361.284L443.889 387.806C440.76 392.555 436.755 397.741 434.622 403.022C434.545 403.212 434.187 404.193 434.19 404.308C434.218 405.347 435.814 407.226 436.428 408.104C441.026 414.673 445.301 421.235 448.568 428.596C460.508 455.5 448.403 467.659 438.929 492.13L438.29 486.881Q435.923 469.52 433.91 452.114C432.581 439.961 431.534 427.808 429.476 415.746C427.479 404.045 424.277 392.624 421.402 381.118C425.4 377.093 434.405 373.317 436.515 368.743C434.5 362.435 397.994 349.374 396.307 345.402C396.412 345.139 396.438 344.828 396.622 344.612C397.148 343.993 399.237 343.087 400.012 342.632C406.612 338.752 413.116 334.561 419.009 329.652C434.762 316.531 447.615 300.624 460.401 284.736Z"/>
	<path fill="#857288" d="M684.604 219.071C683.679 216.325 683.561 213.929 684.841 211.255C686.662 207.451 691.175 205.415 694.985 204.2C711.141 199.046 730.761 203.398 745.421 211.02C756.316 216.685 765.158 225.729 772.748 235.221C774.802 236.461 785.534 251.266 787.586 254.116L787.387 254.493C785.947 253.926 784.176 253.018 782.638 252.857C781.535 252.741 781.423 252.998 780.674 253.698C779.974 258.352 783.22 266.87 783.482 272.381C783.919 281.561 780.951 288.731 774.769 295.446C767.492 303.351 752.344 314.275 741.152 314.41C737.414 314.455 735.89 311.735 733.47 309.357C737.304 307.7 740.572 305.855 743.456 302.731C747.383 298.475 749.532 292.869 749.083 287.059C748.719 282.34 746.591 277.7 742.853 274.714C739.688 272.186 735.575 271.261 731.603 271.932C724.743 273.092 720.451 278.117 716.649 283.466C716.044 277.435 716.731 271.344 716.199 265.299C715.392 256.12 709.483 234.788 704.257 227.302C702.99 225.488 701.684 224.224 699.407 223.921C694.217 223.232 689.818 227.145 685.883 229.989C686.007 226.049 686.187 222.795 684.604 219.071Z"/>
	<path fill="#F8F8F6" d="M684.604 219.071C683.679 216.325 683.561 213.929 684.841 211.255C686.662 207.451 691.175 205.415 694.985 204.2C711.141 199.046 730.761 203.398 745.421 211.02C756.316 216.685 765.158 225.729 772.748 235.221C770.299 234.385 760.429 224.622 757.27 222.2C753.843 219.574 750.137 217.41 746.275 215.485C731.778 208.257 710.806 202.913 694.916 208.538C688.384 210.85 687.447 213.291 684.604 219.071Z"/>
	<path fill="#F8F8F6" d="M384.215 239.689C384.36 239.771 384.513 239.842 384.652 239.935C390.553 243.859 400.932 259.131 401.682 266.261C401.795 267.339 401.867 266.889 401.152 267.83L398.262 267.885L397.74 268.528C397.746 273.135 401.423 276.501 404.378 279.57C403.764 280.929 403.415 282.007 403.16 283.476C403.739 284.78 403.981 284.776 405.25 285.482C406.788 285.301 406.83 284.044 408.211 283.264C410.24 283.951 412.194 284.423 414.304 284.788C414.349 287.057 414.251 289.324 414.182 291.592C408.635 295.238 404.933 299.354 398.564 301.918C393.681 303.885 388.556 302.862 383.517 303.982C383.094 304.645 382.893 304.749 382.913 305.603C382.988 308.727 386.005 311.567 388.201 313.506C395.201 319.688 399.592 320.058 408.669 319.437L412.205 316.351C412.083 320.433 411.821 324.425 411.324 328.479C403.041 334.332 393.041 333.737 383.375 333.46L382.361 333.351C372.887 332.318 364.43 330.06 356.59 324.511C355.399 323.669 353.833 322.751 352.956 321.569C352.828 321.397 352.709 321.219 352.586 321.043L352.16 321.022L351.971 320.753C346.895 322.876 341.75 324.35 336.309 322.476C331.942 320.972 327.941 317.481 326.036 313.252C324.24 309.265 324.309 304.985 325.949 300.959C326.748 298.999 328.069 296.933 330.222 296.305C336.858 294.368 341.876 302.593 346.896 305.228C347.935 305.773 348.132 305.742 349.186 305.419C350.355 300.423 353.06 296.473 354.986 291.807C356.576 287.956 357.53 283.662 358.65 279.647C371.379 268.663 378.236 255.164 384.215 239.689Z"/>
	<path fill="#594763" d="M382.16 270.764C382.922 270.858 383.797 270.923 384.525 271.166C386.29 271.754 387.436 273.816 388.169 275.422C389.56 278.467 389.983 282.2 388.723 285.32C388.511 285.284 388.297 285.259 388.087 285.211C386.025 284.745 384.692 283.519 383.616 281.754C381.644 278.519 381.322 274.385 382.16 270.764Z"/>
	<path fill="#594763" d="M336.414 305.389Q337.41 305.359 338.405 305.417C341.284 305.585 344.598 307.066 346.449 309.322C347.88 311.067 347.973 312.506 347.715 314.683C345.08 314.114 339.477 310.318 337.352 308.482C336.283 307.56 336.516 306.712 336.414 305.389Z"/>
	<path fill="#594763" d="M384.002 256.118C385.385 256.255 386.749 256.396 388.067 256.867C389.643 257.429 390.135 258.399 390.762 259.813C390.524 261.072 390.604 261.053 389.582 261.806C387.892 261.753 387.55 261.227 386.232 260.223C384.181 259.677 382.755 260.036 380.748 260.506L379.935 260.7C379.001 260.037 379.1 260.335 378.795 259.077C378.973 258.798 379.128 258.503 379.33 258.242C380.386 256.873 382.42 256.438 384.002 256.118Z"/>
	<path fill="#C6BAC6" d="M681.942 341.185C684.154 340.879 686.507 340.901 688.743 340.776C685.668 343.929 681.789 346.387 678.309 349.082C674.24 352.234 670.365 355.685 666.562 359.153C660.994 364.233 652.884 372.58 652.745 380.606C652.68 384.377 654.563 386.74 657.054 389.371C644.636 424.831 635.445 460.516 630.03 497.719Q627.612 514.568 625.717 531.483C625.027 537.943 624.847 544.619 623.618 550.984C622.131 551.819 620.508 551.443 618.879 551.298Q613.096 550.747 607.296 550.411C614.42 495.88 624.848 444.473 643.523 392.551C648.338 379.162 652.899 364.897 661.952 353.683C667.324 347.027 673.208 342.153 681.942 341.185Z"/>
	<path fill="#F8F8F6" d="M349.732 325.351C353.133 326.468 355.678 329.247 358.807 330.945C368.919 336.434 380.021 337.646 391.312 338.007C392.08 359.597 401.318 381.707 408.859 401.718C407.906 403.384 406.735 404.956 405.651 406.54C404.962 407.397 404.263 408.092 403.435 408.814C403.147 408.76 402.82 408.808 402.573 408.653C401.695 408.103 389.685 392.719 386.989 389.935Q379.821 382.58 371.982 375.943Q364.144 369.307 355.707 363.45C355.785 357.296 354.896 351.291 353.716 345.265C352.73 340.228 349.176 329.646 349.732 325.351Z"/>
	<path fill="#C6BAC6" d="M749.985 337.34C750.46 337.611 750.67 337.71 751.085 338.011C756.486 341.918 758.468 350.391 759.315 356.659C753.138 361.6 745.801 365.249 739.107 369.462C730.537 374.856 722.133 380.82 713.956 386.794C710.703 389.17 700.1 398.6 697.532 399.047L696.645 397.904C693.323 388.314 689.131 379.282 684.81 370.117C705.854 358.169 730.12 351.319 749.985 337.34Z"/>
	<path fill="#F8F8F6" d="M527.103 161.067L528.736 161.465C534.623 166.025 524.841 185.555 524.425 191.876C523.945 199.166 526.897 206.683 529.144 213.482C526.735 226.317 511.385 258.617 504.688 271.281C502.787 269.462 500.724 267.831 498.691 266.164C494.36 262.621 489.492 259.917 484.647 257.159C492.884 242.823 502.393 227.472 507.51 211.722C510.061 203.868 510.126 195.551 513.244 187.742C515.189 182.87 519.189 179.222 521.672 174.657C524.039 170.308 525.206 165.596 527.103 161.067Z"/>
	<path fill="#C6BAC6" d="M566.463 217.534L567.477 217.564C571.146 221.048 576.784 238.265 578.749 243.607C564.145 247.655 550.153 254.724 539.897 266.027L539.646 266.205L538.928 266.049C534.956 257.933 531.789 249.294 528.304 240.948C534.6 228.68 554.264 221.64 566.463 217.534Z"/>
	<path fill="#F8F8F6" d="M345.638 364.409Q346.074 364.409 346.508 364.455C350.03 364.801 354.84 368.127 357.724 370.105C374.908 381.894 388.537 397.035 401.429 413.234C397.954 411.467 394.003 409.23 390.024 409.232C387.19 409.232 385.746 410.042 383.76 411.994C380.875 415.671 378.09 419.419 375.175 423.075C373.147 418.497 371.978 413.571 370.01 408.965C363.09 392.771 350.312 384.386 335.643 375.884C335.553 375.325 335.432 374.777 335.496 374.203C335.929 370.326 342.643 366.403 345.638 364.409Z"/>
	<path fill="#F8F8F6" d="M477.581 258.802C487.5 260.466 503.312 276.045 509.784 283.773C507.481 289.137 501.118 302.998 496.219 305.93L495.36 305.694C485.385 295.258 474.83 285.806 461.471 279.936C466.219 272.562 471.963 265.528 477.581 258.802Z"/>
	<path fill="#F8F8F6" d="M547.725 151.386C550.517 154.062 549.44 162.281 550.033 166.083C551.341 174.473 555.035 182.332 555.895 190.904C556.847 200.406 553.695 206.375 557.248 216.083C551.65 218.597 546.153 221.255 540.826 224.305C538.59 219.806 536.017 215.466 533.539 211.097C530.539 205.665 528.114 199.457 528.568 193.15C529.176 184.707 533.899 179.763 539.886 174.495C539.272 179.236 537.335 185.061 537.572 189.768C537.63 190.908 537.713 191.514 538.59 192.293L539.439 192.012C545.126 185.381 543.351 161.176 547.725 151.386Z"/>
	<path fill="#F8F8F6" d="M397.001 351.643C406.172 353.797 422.558 363.862 431.438 368.624C426.692 372.913 421.288 375.2 417.175 380.408C418.547 387.5 420.822 394.482 422.55 401.501C424.293 408.587 425.428 415.811 426.628 423.004Q427.506 429.039 428.091 435.109C425.487 428.107 422.864 421.152 419.761 414.352C416.755 407.763 413.291 401.371 410.491 394.691C404.778 381.061 400.037 366.115 397.001 351.643Z"/>
	<path fill="#F8F8F6" d="M317.218 510.357C318.09 511.278 328.741 553.417 330.595 559.804L316.064 562.092L304.726 564.027C306.93 547.898 312.191 525.823 317.218 510.357Z"/>
	<path fill="#F8F8F6" d="M410.858 406.913C411.732 408.623 411.176 410.163 411.235 412.022C411.269 413.102 411.219 413.829 412.046 414.588C412.708 413.959 413.278 413.517 414.082 413.083C416.768 415.206 418.465 421.202 419.678 424.357C424.102 435.858 428.116 447.76 430.482 459.873C432.996 472.737 434.23 485.852 436.649 498.736Q441.226 523.714 446.949 548.454C444.341 548.507 441.729 548.687 439.123 548.82L432.729 549.097C433.091 538.523 434.102 527.97 434.459 517.393Q434.716 511.075 434.619 504.753Q434.521 498.431 434.068 492.124Q433.616 485.818 432.809 479.546Q432.003 473.275 430.846 467.059C429.301 458.537 427.288 449.559 423.634 441.666C419.773 433.328 413.462 426.921 409.314 418.947C409.647 417.982 409.923 417.232 409.889 416.203L408.4 417.272C407.326 416.028 406.383 414.696 405.419 413.367C407.508 411.331 409.2 409.312 410.858 406.913Z"/>
	<path fill="#F8F8F6" d="M444.165 490.331L444.714 490.915C447.873 502.077 449.676 513.822 452.157 525.163C453.713 532.269 455.988 539.22 457.496 546.315C457.657 547.074 457.642 547.458 457.376 548.178L456.125 548.487C454.549 548.511 452.337 548.74 451 547.908C448.335 539.604 447.255 530.299 445.593 521.733C443.989 513.47 441.765 505.05 440.855 496.693C441.826 494.418 442.858 492.43 444.165 490.331Z"/>
	<path fill="#F8F8F6" d="M512.892 129.7C513.445 129.88 513.792 129.968 514.323 130.271C515.631 131.015 516.535 132.445 517.33 133.672C520.371 138.367 522.777 143.59 525.624 148.422C528.816 153.841 532.527 158.994 535.552 164.502C536.572 166.359 538.305 169.369 538.574 171.463C538.751 172.836 537.528 173.762 536.724 174.733C533.311 171.255 533.901 166.109 533.299 161.515C531.949 160.247 530.29 158.521 528.576 157.815C527.242 157.266 526.673 157.486 525.383 157.978C525.219 158.04 525.056 158.108 524.893 158.173C521.515 153.509 519.902 147.107 517.191 141.992C515.821 139.406 512.145 136.007 511.657 133.233C511.393 131.734 512.178 130.926 512.892 129.7Z"/>
	<path fill="#F8F8F6" d="M412.93 298.399C413.771 302.304 412.972 307.563 412.655 311.592C410.783 312.763 408.904 313.866 406.754 314.441C401.791 315.767 397.757 314.491 393.433 312.02C391.896 310.926 390.502 309.635 389.083 308.393C399.513 308.129 405.341 305.748 412.93 298.399Z"/>
	<path fill="#F8F8F6" d="M520.605 130.903C520.818 130.927 521.033 130.934 521.243 130.974C523.684 131.429 525.828 134.715 527.238 136.641C530.922 141.673 540.292 154.761 541.461 160.478C541.833 162.295 541.222 164.767 540.948 166.598C535.749 155.636 523.289 142.261 520.605 130.903Z"/>
	<path fill="#F8F8F6" d="M510.41 139.432C511.528 140.455 512.663 141.492 513.506 142.762C517.225 148.368 522.879 159.234 521.643 166.101L520.889 165.882C518.064 159.182 510.533 146.112 510.41 139.432Z"/>
	<path fill="#F8F8F6" d="M509.446 149.336C511.093 150.765 512.019 153.42 512.86 155.387C514.842 160.019 519.39 169.345 517.46 174.219L516.173 174.793C513.446 171.12 509.836 154.234 509.446 149.336Z"/>
	<path fill="#C6BAC6" d="M668.087 362.51C668.358 363.62 660.197 380.844 658.855 383.662L657.942 383.898C657.275 382.521 656.748 381.394 656.867 379.808C657.348 373.407 663.626 366.678 668.087 362.51Z"/>
	<path fill="#857288" d="M352.475 285.553L352.672 285.804C352.617 286.698 352.451 287.377 352.16 288.228C351.202 291.027 348.616 298.622 345.976 299.933L344.915 299.229L342.146 295.684C345.867 292.654 349.31 289.155 352.475 285.553Z"/>
	<path fill="#857288" d="M696.684 228.017C697.646 227.98 698.514 228.089 699.464 228.23C701.389 229.634 702.222 232.017 703.242 234.111C701.413 234.195 699.577 234.202 697.747 234.236C694.919 233.98 692.632 232.982 690.107 231.791C692.25 230.39 694.413 229.189 696.684 228.017Z"/>
	<path fill="#594763" d="M480.821 585.194C485.499 585.022 490.997 585.535 495.009 588.122C496.671 589.194 497.996 590.754 498.368 592.738C499.685 599.762 487.325 612.045 483.496 617.861C452.326 665.219 436.42 744.192 447.969 799.99C451.901 818.985 459.486 839.538 476.538 850.564C483.879 855.311 492.595 857.389 501.204 855.385C512.635 852.724 520.501 844.076 524.269 833.218C525.595 829.397 526.55 824.766 528.825 821.38C530.989 818.161 534.789 816.006 538.585 815.39C542.743 814.715 547.808 815.781 551.222 818.291C555.049 821.105 556.87 825.621 557.411 830.217C559.195 845.366 553.217 862.733 544.036 874.663C534.113 887.557 519.925 895.968 503.745 898.008Q502.007 898.244 500.26 898.391Q498.513 898.539 496.76 898.599Q495.008 898.659 493.255 898.631Q491.501 898.603 489.752 898.486Q488.002 898.37 486.261 898.166Q484.519 897.961 482.79 897.67Q481.061 897.378 479.349 897Q477.636 896.622 475.945 896.158Q474.254 895.695 472.589 895.147Q470.923 894.598 469.287 893.967Q467.651 893.336 466.049 892.623Q464.447 891.911 462.882 891.119Q461.318 890.326 459.795 889.456Q458.273 888.586 456.796 887.641Q455.319 886.696 453.892 885.677Q452.464 884.659 451.09 883.57C427.502 865.249 417.916 834.761 414.398 806.182C406.432 741.456 428.539 661.001 468.665 609.619C429.471 630.618 398.393 680.72 379.224 719.657C373.716 730.271 368.748 741.821 364.495 753C361.758 760.195 359.738 768.238 356.012 774.986C354.419 777.874 352.259 780.408 349.438 782.161C346.207 784.169 342.291 784.91 338.603 783.826C335.509 782.917 333.006 780.837 331.473 778.01C322.607 761.66 341.65 689.914 347.315 671.451C352.599 654.229 359.319 637.455 364.745 620.276C329.747 640.556 302.841 695.215 293.671 733.513C290.731 745.791 289.57 769.357 281.895 778.561C279.12 781.889 275.306 783.736 270.985 783.909Q270.244 783.944 269.502 783.904Q268.761 783.865 268.028 783.751Q267.294 783.637 266.576 783.451Q265.858 783.264 265.162 783.006Q264.466 782.748 263.799 782.422Q263.132 782.095 262.502 781.703Q261.871 781.312 261.284 780.859Q260.696 780.406 260.156 779.896C256.123 776.067 254.892 770.736 254.78 765.368C254.603 756.886 257.14 748.395 259.392 740.294C270.884 698.951 297.835 651.073 327.533 620.109C340.201 606.901 356.416 592.964 375.744 592.693C380.391 592.627 385.564 593.765 388.933 597.198C391.364 599.675 392.118 602.987 392.015 606.37C391.705 616.594 386.459 627.258 382.947 636.743C379.324 646.53 375.588 656.289 372.57 666.284C369.419 676.718 367.402 687.024 366.957 697.93C372.998 690.191 377.841 681.167 383.252 672.952Q395.803 654.145 409.961 636.516C426.407 616.169 453.684 588.073 480.821 585.194Z"/>
	<path fill="#594763" d="M735.659 593.184C738.471 593.439 740.768 593.873 743.239 595.307C746.995 597.485 749.955 601.083 750.941 605.355C751.64 608.382 751.149 611.592 749.812 614.374C746.168 621.96 737.736 629.965 732.258 636.517C727.218 642.545 722.687 648.781 718.592 655.494C726.315 655.39 743.146 654.567 748.96 659.825C750.859 661.542 751.885 664.305 751.892 666.843C751.896 668.504 751.234 669.839 750.062 670.97C744.698 676.149 717.428 670.366 709.942 669.84C698.852 691.479 685.965 723.363 693.352 747.929C694.715 752.463 697.635 757.835 702.077 759.997C705.543 761.684 710.08 760.948 713.544 759.626C723.454 755.845 729.562 745.186 733.001 735.736C734.725 731 735.889 725.859 738.139 721.349C740.018 717.582 742.998 713.936 747.195 712.722C750.784 711.684 754.674 712.874 757.758 714.792C761.876 717.352 764.271 721.685 765.136 726.369C767.069 736.842 763.562 749.105 757.654 757.782C748.701 770.933 732.108 779.945 716.658 782.744C704.677 784.915 689.472 784.284 679.212 776.981C669.767 770.259 666.662 760.676 664.817 749.731C657.302 762.125 643.598 773.803 630.474 779.848C619.135 785.07 605.477 786.545 593.624 782.13C580.569 777.267 573.451 767.477 567.791 755.265C552.899 769.435 538.932 783.766 517.203 785.481C505.539 786.402 493.66 784.358 484.593 776.523C474.617 767.903 470.377 754.064 469.567 741.285C468.106 718.21 476.352 697.111 491.471 679.909C500.943 670.252 512.093 662.577 525.318 659.197C534.13 656.944 543.294 656.7 551.3 661.728C556.831 665.201 560.57 670.605 562.027 676.958C564.017 685.634 562.101 694.732 557.426 702.214C545.512 721.281 521.445 728.328 500.89 733.157C500.843 736.804 500.807 740.56 501.406 744.165C502.413 750.223 505.072 755.958 510.266 759.511C515.858 763.337 523.367 764.085 529.92 762.901C544.715 760.226 556.768 747.842 564.901 735.95C565.766 719.485 570.38 705.173 579.316 691.224C589.108 675.937 605.478 661.703 623.61 657.814C632.138 655.985 642.184 656.322 649.593 661.447C655.142 665.286 658.098 672.32 659.097 678.818C660.437 687.536 657.652 696.587 652.483 703.618C640.646 719.72 614.92 729.948 595.801 732.751C595.253 737.643 595.283 742.626 596.858 747.341Q597.041 747.895 597.252 748.438Q597.462 748.981 597.7 749.513Q597.939 750.045 598.204 750.564Q598.469 751.083 598.76 751.588Q599.051 752.093 599.368 752.583Q599.684 753.072 600.026 753.544Q600.367 754.017 600.732 754.472Q601.096 754.926 601.484 755.361Q601.871 755.797 602.281 756.212Q602.69 756.627 603.12 757.02Q603.55 757.414 603.999 757.785Q604.449 758.156 604.916 758.503Q605.384 758.851 605.869 759.174Q606.354 759.498 606.855 759.796Q607.356 760.094 607.871 760.366Q608.386 760.638 608.915 760.884C616.401 764.392 624.117 763.894 631.701 761.062C645.38 755.955 659.975 741.644 664.182 727.509C666.683 719.106 666.913 709.908 669.32 701.331C672.762 689.066 677.695 677.456 682.936 665.871C677.131 664.421 669.461 662.549 665.671 657.594C663.798 655.146 662.805 652.051 663.241 648.97C663.508 647.084 664.384 645.618 665.994 644.582C671.341 641.142 683.501 647.815 689.279 649.355L690.079 649.564C697.704 634.776 705.659 618.949 716.125 605.918C721.348 599.416 727.026 594.138 735.659 593.184Z"/>
	<path fill="#F8F8F6" d="M634.922 678.054C637.035 677.847 639.093 677.766 641.127 678.489C643.073 679.179 644.93 680.388 645.748 682.365C646.656 684.558 646.245 686.926 645.385 689.067C640.099 702.232 620.537 710.17 608.351 715.038L598.846 718.199Q600.917 713.19 603.405 708.374C610.105 695.335 620.577 682.667 634.922 678.054Z"/>
	<path fill="#F8F8F6" d="M537.895 678.559C539.955 678.329 542.447 678.146 544.396 678.957C546.379 679.781 548.107 681.77 548.876 683.748C549.754 686.003 549.385 688.321 548.403 690.473C542.555 703.285 524.82 710.652 512.645 715.56L503.585 718.521Q505.568 713.289 508.042 708.27C514.474 695.424 523.907 683.292 537.895 678.559Z"/>
	<path fill="#D0FEB7" d="M782.546 403.352C790.275 400.699 799.637 398.207 807.776 397.422C810.045 404.534 812.053 412.562 815.257 419.262Q803.066 421.933 790.751 423.953C788.883 417.007 785.424 409.947 782.546 403.352Z"/>
</svg>
